<svg version="1.1" xmlns="http://www.w3.org/2000/svg" height="100" width="100">
    <path d="M 10 50 Q 50 0 90 50 Q 50 100 10 50" stroke="black" stroke-width="4" fill="none"/>
    <polygon points="-10,30 -10,40 10,40 10,30" transform="translate(50 45) rotate(0 0 0)" stroke="black" stroke-width="4" fill="none"/>
    <polygon points="-10,30 -10,40 10,40 10,30" transform="translate(43 43) rotate(35 0 0)" stroke="black" stroke-width="4" fill="none"/>
    <polygon points="-10,30 -10,40 10,40 10,30" transform="translate(43 57) rotate(145 0 0)" stroke="black" stroke-width="4" fill="none"/>
    <polygon points="-10,30 -10,40 10,40 10,30" transform="translate(50 55) rotate(180 0 0)" stroke="black" stroke-width="4" fill="none"/>
    <polygon points="-10,30 -10,40 10,40 10,30" transform="translate(57 57) rotate(215 0 0)" stroke="black" stroke-width="4" fill="none"/>
    <polygon points="-10,30 -10,40 10,40 10,30" transform="translate(57 43) rotate(-35 0 0)" stroke="black" stroke-width="4" fill="none"/>
    <polygon points="30,50 40,40 60,60 70,50 60,40 40,60" stroke="black" stroke-width="4" fill="none"/>
</svg> 
